<?xml version="1.0" encoding="utf-8"?>
<!-- Generator: Adobe Illustrator 23.0.0, SVG Export Plug-In . SVG Version: 6.00 Build 0)  -->
<svg version="1.1" id="图层_1" xmlns="http://www.w3.org/2000/svg" xmlns:xlink="http://www.w3.org/1999/xlink" x="0px" y="0px"
	 viewBox="0 0 585 293" style="enable-background:new 0 0 585 293;" xml:space="preserve">
<path d="M202.7,38.2C170.9,60.2,93.1-1.8,67.5,0.8C42.4,3.4,35.2,46.9,35.2,46.9c41-9.7,76.3,24.1,113.7,27.6
	c-37.4,23-82.4,50.7-112.6,80.4c-50.2,49.2-34.8,82.4-26.6,85c0,0,13.3,10.8,23.6-13.8c33.3-9.7,55.3,62,99.3,66
	c27.6,4.6,50.7-24.6,50.7-24.6c-50.2,13.3-85.5-71.2-121.3-70.1c-18.4,0.5-31.2,8.7-36.4,11.3C70,143.1,169.9,109.9,189.9,93
	C224.2,63.8,202.7,38.2,202.7,38.2z M293.7,208.7c-1-8.2-15.4-6.7-15.4-6.7c-31.2,44.5-100.9,47.1-101.4,4.6
	c26.1-7.7,67.6-36.9,84.5-58.4c19.5-24.6-10.8-32.8-10.8-32.8c-13.8-3.6-54.8-0.5-85,22c-46.6,35.3-34.8,109.1,15.4,122.4
	C241,275.7,294.7,217.4,293.7,208.7z M213.3,140.6c6.1-1.5,11.3,4.6,4.1,17.9c-7.7,13.8-25.1,23.6-38.4,29.2
	C184.2,168.7,194.9,145.7,213.3,140.6z M396.9,114c-16.9,13.8-38.4,25.6-51.7,23.6c11.3-15.4,18.4-34.8,18.4-34.8
	s-34.8-4.1-49.7,9.7c0,0-33.8,54.8-41.5,87c-4.6,18.4-4.1,44.5,27.1,44.5c0,0,0.5,0,1.5,0c-2.6-30.2,11.8-56.3,30.2-82.9
	c13.3,8.2,44-17.9,44-17.9s-7.7,11.8-5.1,22.5c5.1,16.9,38.9,16.4,47.6,12.3c0,0,5.1-29.7,25.1-50.7C451.7,117.5,420,95.5,396.9,114
	z M548.7,197.9c8.7-14.8,22.5-41.5,20.5-65.5c-1.5-19.5-16.9-33.3-40.4-23.6c-24.1-3.1-54.8,4.6-77.8,35.8
	c-29.2,39.4-24.1,99.3,16.9,99.3c29.2,0,54.8-16.4,68.1-29.7c9.2,1.5,24.6,5.6,39.4,1.5c0,0,7.7-2.6,9.2-18.9
	C584.6,196.9,565.6,200.5,548.7,197.9z M544.1,147.2c3.1,8.2-1,26.1-14.3,42c-3.1-3.1-5.6-7.2-6.1-12.8
	c-2.6-28.7,13.8-32.3,17.4-32.8C542.6,145.2,543.6,146.2,544.1,147.2z M474.5,213.3c-7.2-12.8-3.6-36.4,4.6-48.1
	c6.1-9.7,14.8-17.9,24.1-23c-9.7,23.6-11.3,52.2,13.3,65.5C500.1,219.4,480.1,224,474.5,213.3z"/>
</svg>
